# Blender v3.1.2 OBJ File: 'FinalScene.blend'
# www.blender.org
o CentreWalls_Cube.001
v -12.000000 -8.000000 17.000000
v -12.000000 10.000000 17.000000
v -12.000000 -8.000000 -12.000000
v -12.000000 10.000000 -12.000000
v 12.000000 -8.000000 17.000000
v 12.000000 10.000000 17.000000
v 12.000000 -8.000000 -12.000000
v 12.000000 10.000000 -12.000000
vt 0.375000 0.500000
vt 0.625000 0.250000
vt 0.375000 0.250000
vt 0.125000 0.750000
vt 0.125000 0.500000
vt 0.625000 0.750000
vt 0.875000 0.500000
vt 0.625000 0.500000
vt 0.875000 0.750000
vt 0.375000 0.750000
vn 0.0000 0.0000 1.0000
vn 0.0000 1.0000 0.0000
vn 0.0000 -1.0000 0.0000
vn 0.0000 0.0000 -1.0000
s off
f 7/1/1 4/2/1 3/3/1
f 1/4/2 7/1/2 3/5/2
f 6/6/3 4/7/3 8/8/3
f 2/9/4 5/10/4 1/4/4
f 7/1/1 8/8/1 4/2/1
f 1/4/2 5/10/2 7/1/2
f 6/6/3 2/9/3 4/7/3
f 2/9/4 6/6/4 5/10/4
