# Blender v3.0.1 OBJ File: ''
# www.blender.org
o Cube_Cube.001
v -4.000000 -4.000000 4.000000
v -4.000000 4.000000 4.000000
v -4.000000 -4.000000 -4.000000
v -4.000000 4.000000 -4.000000
v 4.000000 -4.000000 4.000000
v 4.000000 4.000000 4.000000
v 4.000000 -4.000000 -4.000000
v 4.000000 4.000000 -4.000000
vn 0.0000 0.0000 1.0000
vn 0.0000 0.0000 -1.0000
vn 0.0000 1.0000 0.0000
vn 0.0000 -1.0000 0.0000
s off
f 7//1 4//1 3//1
f 1//2 6//2 5//2
f 1//3 7//3 3//3
f 6//4 4//4 8//4
f 7//1 8//1 4//1
f 1//2 2//2 6//2
f 1//3 5//3 7//3
f 6//4 2//4 4//4
